<svg width="36" height="36" viewBox="0 0 36 36" fill="none" xmlns="http://www.w3.org/2000/svg">
<circle cx="18" cy="18" r="18" fill="#D9D9D9"/>
<path fill-rule="evenodd" clip-rule="evenodd" d="M16.3131 14.7713C15.6924 14.2522 15.2864 13.5212 15.174 12.7198C15.0616 11.9185 15.2507 11.104 15.7047 10.4342C16.1587 9.76435 16.8452 9.28696 17.6312 9.09454C18.4172 8.90212 19.2466 9.00837 19.9586 9.39271C20.6707 9.77705 21.2147 10.4121 21.4852 11.1747C21.7557 11.9373 21.7334 12.7732 21.4226 13.5203C21.1118 14.2675 20.5347 14.8726 19.8031 15.2184C19.0716 15.5642 18.2377 15.626 17.4631 15.3919L16.892 16.3809C16.8457 16.4612 16.7827 16.5308 16.7074 16.5849C16.6321 16.639 16.5461 16.6764 16.4552 16.6947C16.3642 16.713 16.2705 16.7117 16.1801 16.6909C16.0897 16.6701 16.0048 16.6303 15.931 16.5741L15.9249 16.5689C15.7899 16.4662 15.7001 16.3151 15.6746 16.1474C15.6491 15.9797 15.6898 15.8087 15.7882 15.6705C15.8106 15.6387 15.8315 15.6059 15.8509 15.5721L16.3131 14.7713ZM19.3861 10.5692C19.8229 10.8207 20.146 11.2309 20.2881 11.7145C20.4302 12.198 20.3804 12.7178 20.1491 13.1656C19.9178 13.6134 19.5228 13.9549 19.0462 14.1188C18.5696 14.2828 18.0481 14.2568 17.5902 14.0461C17.5301 13.9994 17.4623 13.9635 17.39 13.9399C16.943 13.6752 16.6195 13.2438 16.4906 12.7405C16.3617 12.2373 16.438 11.7035 16.7027 11.2565C16.9674 10.8095 17.3988 10.486 17.902 10.3571C18.4053 10.2282 18.9391 10.3045 19.3861 10.5692ZM17.0818 19.3154C16.8617 18.594 16.4605 17.941 15.9165 17.4186C15.3725 16.8962 14.7037 16.5219 13.974 16.3312C13.6371 16.2433 13.2863 16.1937 12.9276 16.1876C12.7151 16.184 12.5071 16.1254 12.3239 16.0175C12.1407 15.9097 11.9885 15.7562 11.8821 15.5721L11.3999 14.7364C12.0122 14.2075 12.4064 13.47 12.5059 12.6669C12.6054 11.8639 12.4032 11.0525 11.9385 10.3901C11.4738 9.72763 10.7797 9.26133 9.99068 9.08159C9.20171 8.90184 8.3741 9.02144 7.6683 9.41721C6.96249 9.81298 6.42878 10.4567 6.17063 11.2236C5.91247 11.9905 5.94827 12.826 6.27108 13.568C6.59388 14.31 7.1807 14.9057 7.91777 15.2397C8.65484 15.5736 9.48964 15.622 10.2604 15.3754L17.1601 27.3269C17.2247 27.4387 17.321 27.5289 17.4368 27.586C17.5526 27.6431 17.6828 27.6646 17.8108 27.6477C17.9389 27.6309 18.059 27.5764 18.1561 27.4912C18.2532 27.4061 18.3228 27.294 18.3562 27.1693L18.5434 26.4703C18.7653 25.643 18.7502 24.7701 18.4999 23.951L17.0818 19.3154ZM10.962 11.2865C10.8343 11.062 10.6635 10.8649 10.4593 10.7066C10.2552 10.5484 10.0218 10.4321 9.77247 10.3644C9.52318 10.2967 9.26297 10.279 9.00681 10.3123C8.75066 10.3456 8.50362 10.4292 8.27991 10.5584C8.05621 10.6875 7.86027 10.8597 7.70336 11.0649C7.54645 11.2701 7.43168 11.5043 7.36566 11.754C7.29963 12.0037 7.28366 12.264 7.31865 12.52C7.35364 12.7759 7.43891 13.0224 7.56955 13.2452C7.83114 13.6914 8.25859 14.0161 8.75863 14.1483C9.25868 14.2805 9.79072 14.2095 10.2386 13.9509C10.6866 13.6923 11.014 13.267 11.1495 12.7678C11.2851 12.2687 11.2176 11.7362 10.962 11.2865ZM13.1836 18.1419C13.1836 18.3151 13.2524 18.4812 13.3748 18.6036C13.4972 18.726 13.6633 18.7948 13.8365 18.7948C14.0096 18.7948 14.1757 18.726 14.2981 18.6036C14.4206 18.4812 14.4894 18.3151 14.4894 18.1419C14.4894 17.9688 14.4206 17.8027 14.2981 17.6803C14.1757 17.5578 14.0096 17.489 13.8365 17.489C13.6633 17.489 13.4972 17.5578 13.3748 17.6803C13.2524 17.8027 13.1836 17.9688 13.1836 18.1419Z" fill="#F28A11"/>
<path d="M13.3011 21.9479C13.3584 22.0471 13.3886 22.1597 13.3886 22.2743C13.3886 22.389 13.3584 22.5015 13.3011 22.6008L10.572 27.3278C10.5074 27.4396 10.411 27.5297 10.2951 27.5868C10.1793 27.6438 10.0491 27.6652 9.92101 27.6483C9.79296 27.6313 9.67282 27.5768 9.57579 27.4915C9.47876 27.4062 9.4092 27.2941 9.3759 27.1693L9.18874 26.4712C8.96718 25.6438 8.98257 24.7709 9.23314 23.9518L10.6033 19.4713C10.6405 19.3495 10.7123 19.2413 10.8101 19.1599C10.9079 19.0785 11.0274 19.0275 11.1538 19.013C11.2802 18.9986 11.4081 19.0214 11.5217 19.0787C11.6354 19.136 11.7298 19.2252 11.7934 19.3354L13.3011 21.9479Z" fill="#F28A11"/>
<path fill-rule="evenodd" clip-rule="evenodd" d="M25.6401 14.7713C25.0193 14.2522 24.6134 13.5212 24.501 12.7198C24.3886 11.9185 24.5777 11.104 25.0317 10.4342C25.4857 9.76435 26.1722 9.28696 26.9582 9.09454C27.7441 8.90212 28.5735 9.00837 29.2856 9.39271C29.9977 9.77705 30.5417 10.4121 30.8122 11.1747C31.0827 11.9373 31.0603 12.7732 30.7496 13.5203C30.4388 14.2675 29.8617 14.8726 29.1301 15.2184C28.3985 15.5642 27.5646 15.626 26.7901 15.3919L26.219 16.3809C26.1726 16.4612 26.1097 16.5308 26.0344 16.5849C25.9591 16.639 25.8731 16.6764 25.7821 16.6947C25.6912 16.713 25.5974 16.7117 25.507 16.6909C25.4166 16.6701 25.3317 16.6303 25.2579 16.5741L25.2518 16.5689C25.1168 16.4662 25.0271 16.3151 25.0016 16.1474C24.976 15.9797 25.0168 15.8087 25.1152 15.6705C25.1376 15.6387 25.1585 15.6059 25.1778 15.5721L25.6401 14.7713ZM28.713 10.5692C29.1499 10.8207 29.4729 11.2309 29.6151 11.7145C29.7572 12.198 29.7074 12.7178 29.4761 13.1656C29.2448 13.6134 28.8497 13.9549 28.3731 14.1188C27.8965 14.2828 27.375 14.2568 26.9171 14.0461C26.8571 13.9994 26.7893 13.9635 26.7169 13.9399C26.2699 13.6752 25.9464 13.2438 25.8175 12.7405C25.6886 12.2373 25.7649 11.7035 26.0296 11.2565C26.2943 10.8095 26.7258 10.486 27.229 10.3571C27.7322 10.2282 28.2661 10.3045 28.713 10.5692ZM26.4088 19.3154C26.1887 18.594 25.7875 17.941 25.2435 17.4186C24.6995 16.8962 24.0307 16.5219 23.301 16.3312C22.9641 16.2433 22.6133 16.1937 22.2546 16.1876C22.042 16.184 21.834 16.1254 21.6508 16.0175C21.4676 15.9097 21.3154 15.7562 21.2091 15.5721L20.7268 14.7364C21.3392 14.2075 21.7333 13.47 21.8329 12.6669C21.9324 11.8639 21.7302 11.0525 21.2655 10.3901C20.8007 9.72763 20.1066 9.26133 19.3176 9.08159C18.5287 8.90184 17.7011 9.02144 16.9953 9.41721C16.2895 9.81298 15.7557 10.4567 15.4976 11.2236C15.2394 11.9905 15.2752 12.826 15.598 13.568C15.9208 14.31 16.5077 14.9057 17.2447 15.2397C17.9818 15.5736 18.8166 15.622 19.5873 15.3754L26.4871 27.3269C26.5517 27.4387 26.648 27.5289 26.7638 27.586C26.8796 27.6431 27.0098 27.6646 27.1378 27.6477C27.2658 27.6309 27.386 27.5764 27.4831 27.4912C27.5802 27.4061 27.6498 27.294 27.6832 27.1693L27.8704 26.4703C28.0922 25.643 28.0771 24.7701 27.8268 23.951L26.4088 19.3154ZM20.289 11.2865C20.1613 11.062 19.9905 10.8649 19.7863 10.7066C19.5822 10.5484 19.3487 10.4321 19.0994 10.3644C18.8501 10.2967 18.5899 10.279 18.3338 10.3123C18.0776 10.3456 17.8306 10.4292 17.6069 10.5584C17.3832 10.6875 17.1872 10.8597 17.0303 11.0649C16.8734 11.2701 16.7586 11.5043 16.6926 11.754C16.6266 12.0037 16.6106 12.264 16.6456 12.52C16.6806 12.7759 16.7659 13.0224 16.8965 13.2452C17.1581 13.6914 17.5856 14.0161 18.0856 14.1483C18.5856 14.2805 19.1177 14.2095 19.5656 13.9509C20.0135 13.6923 20.341 13.267 20.4765 12.7678C20.612 12.2687 20.5446 11.7362 20.289 11.2865ZM22.5105 18.1419C22.5105 18.3151 22.5793 18.4812 22.7018 18.6036C22.8242 18.726 22.9903 18.7948 23.1634 18.7948C23.3366 18.7948 23.5027 18.726 23.6251 18.6036C23.7475 18.4812 23.8163 18.3151 23.8163 18.1419C23.8163 17.9688 23.7475 17.8027 23.6251 17.6803C23.5027 17.5578 23.3366 17.489 23.1634 17.489C22.9903 17.489 22.8242 17.5578 22.7018 17.6803C22.5793 17.8027 22.5105 17.9688 22.5105 18.1419Z" fill="#090909"/>
<path d="M22.6281 21.9479C22.6854 22.0471 22.7155 22.1597 22.7155 22.2743C22.7155 22.389 22.6854 22.5015 22.6281 22.6008L19.899 27.3278C19.8343 27.4396 19.738 27.5297 19.6221 27.5868C19.5062 27.6438 19.376 27.6652 19.248 27.6483C19.1199 27.6313 18.9998 27.5768 18.9028 27.4915C18.8057 27.4062 18.7362 27.2941 18.7029 27.1693L18.5157 26.4712C18.2941 25.6438 18.3095 24.7709 18.5601 23.9518L19.9303 19.4713C19.9674 19.3495 20.0393 19.2413 20.1371 19.1599C20.2349 19.0785 20.3544 19.0275 20.4808 19.013C20.6072 18.9986 20.7351 19.0214 20.8487 19.0787C20.9623 19.136 21.0567 19.2252 21.1203 19.3354L22.6281 21.9479Z" fill="#090909"/>
</svg>
