<svg width="127" height="48" viewBox="0 0 127 48" fill="none" xmlns="http://www.w3.org/2000/svg">
<path fill-rule="evenodd" clip-rule="evenodd" d="M22.1147 12.3754C20.7835 11.2624 19.9131 9.69482 19.672 7.97652C19.431 6.25821 19.8365 4.51161 20.81 3.07531C21.7835 1.63901 23.2557 0.615332 24.941 0.20272C26.6264 -0.209893 28.4049 0.017956 29.9318 0.842096C31.4587 1.66624 32.6253 3.02796 33.2053 4.66328C33.7853 6.2986 33.7374 8.09103 33.071 9.69307C32.4046 11.2951 31.1671 12.5927 29.5984 13.3342C28.0296 14.0757 26.2415 14.2083 24.5806 13.7064L23.356 15.8269C23.2566 15.9992 23.1217 16.1484 22.9602 16.2644C22.7986 16.3805 22.6143 16.4608 22.4193 16.5C22.2243 16.5392 22.0232 16.5364 21.8294 16.4918C21.6355 16.4472 21.4534 16.3618 21.2952 16.2413L21.2821 16.2301C20.9926 16.01 20.8001 15.6858 20.7454 15.3263C20.6907 14.9667 20.7781 14.6 20.989 14.3037C21.0371 14.2356 21.082 14.1652 21.1235 14.0928L22.1147 12.3754ZM28.7041 3.36493C29.6408 3.90415 30.3335 4.78371 30.6383 5.82067C30.943 6.85762 30.8363 7.97214 30.3403 8.93242C29.8443 9.89269 28.9972 10.6248 27.9752 10.9764C26.9532 11.3281 25.835 11.2722 24.8531 10.8205C24.7242 10.7203 24.579 10.6433 24.4238 10.5927C23.4653 10.0251 22.7716 9.10003 22.4952 8.02094C22.2188 6.94184 22.3824 5.79715 22.95 4.83868C23.5176 3.88021 24.4427 3.18648 25.5218 2.9101C26.6009 2.63372 27.7456 2.79733 28.7041 3.36493ZM23.7629 22.1195C23.291 20.5726 22.4308 19.1724 21.2642 18.0522C20.0977 16.932 18.6637 16.1293 17.0989 15.7205C16.3765 15.532 15.6242 15.4256 14.8551 15.4125C14.3993 15.4047 13.9533 15.2791 13.5604 15.0478C13.1676 14.8165 12.8413 14.4875 12.6132 14.0928L11.5791 12.3008C12.8922 11.1665 13.7374 9.58509 13.9508 7.8631C14.1642 6.14111 13.7306 4.40122 12.7341 2.98074C11.7376 1.56026 10.2491 0.560382 8.55732 0.174947C6.86551 -0.210487 5.09085 0.045981 3.57739 0.894631C2.06392 1.74328 0.919472 3.12366 0.365906 4.76815C-0.187656 6.41264 -0.110897 8.20409 0.581303 9.79521C1.2735 11.3863 2.53183 12.6637 4.11234 13.3798C5.69285 14.0959 7.48294 14.1996 9.13558 13.6709L23.9309 39.2987C24.0694 39.5385 24.2759 39.7319 24.5242 39.8543C24.7726 39.9768 25.0517 40.0229 25.3263 39.9867C25.6008 39.9505 25.8585 39.8338 26.0666 39.6511C26.2748 39.4685 26.4241 39.2283 26.4958 38.9608L26.8971 37.4618C27.3728 35.6879 27.3405 33.8161 26.8038 32.0597L23.7629 22.1195ZM10.6401 4.90308C10.3664 4.42156 10.0001 3.99896 9.56229 3.65958C9.12453 3.32021 8.62396 3.07078 8.08941 2.92566C7.55486 2.78053 6.99688 2.74257 6.4476 2.81397C5.89832 2.88536 5.36858 3.0647 4.88889 3.34166C4.4092 3.61861 3.98903 3.98772 3.65257 4.42772C3.31611 4.86773 3.07001 5.36994 2.92843 5.90544C2.78685 6.44094 2.7526 6.99916 2.82763 7.54796C2.90267 8.09675 3.08552 8.62529 3.36565 9.10313C3.92657 10.0599 4.84317 10.756 5.91542 11.0395C6.98767 11.323 8.12853 11.1709 9.08903 10.6163C10.0495 10.0617 10.7517 9.14978 11.0423 8.07943C11.3329 7.00908 11.1883 5.86724 10.6401 4.90308ZM15.4039 19.6032C15.4039 19.9746 15.5514 20.3307 15.814 20.5932C16.0765 20.8558 16.4326 21.0033 16.8039 21.0033C17.1752 21.0033 17.5313 20.8558 17.7939 20.5932C18.0564 20.3307 18.204 19.9746 18.204 19.6032C18.204 19.2319 18.0564 18.8758 17.7939 18.6133C17.5313 18.3507 17.1752 18.2032 16.8039 18.2032C16.4326 18.2032 16.0765 18.3507 15.814 18.6133C15.5514 18.8758 15.4039 19.2319 15.4039 19.6032Z" fill="#F28A11"/>
<path d="M15.6559 27.7645C15.7788 27.9773 15.8435 28.2187 15.8435 28.4645C15.8435 28.7102 15.7788 28.9516 15.6559 29.1645L9.80387 39.3006C9.66527 39.5404 9.45866 39.7337 9.21017 39.856C8.96169 39.9784 8.68249 40.0243 8.40792 39.9879C8.13334 39.9515 7.87573 39.8345 7.66766 39.6517C7.4596 39.4689 7.31043 39.2285 7.23904 38.9608L6.83771 37.4638C6.36261 35.6897 6.3956 33.8178 6.93291 32.0616L9.87108 22.4537C9.95068 22.1927 10.1048 21.9607 10.3145 21.7862C10.5242 21.6116 10.7804 21.5021 11.0514 21.4712C11.3225 21.4403 11.5968 21.4892 11.8404 21.612C12.084 21.7348 12.2865 21.9262 12.4228 22.1625L15.6559 27.7645Z" fill="#F28A11"/>
<path fill-rule="evenodd" clip-rule="evenodd" d="M39.4241 39V16.536H32.9921L26.9086 31.6979L27.0001 31.9146V39L28.9281 39L33.9521 25.528V39H39.4241ZM43.2951 25.208C42.6124 26.5947 42.2711 28.2053 42.2711 30.04C42.2711 31.8747 42.6124 33.496 43.2951 34.904C43.9991 36.2907 44.9484 37.368 46.1431 38.136C47.3377 38.8827 48.6604 39.256 50.1111 39.256C51.3697 39.256 52.4684 39 53.4071 38.488C54.3671 37.976 55.1137 37.304 55.6471 36.472V39H61.1191V21.144H55.6471V23.672C55.1351 22.84 54.3991 22.168 53.4391 21.656C52.5004 21.144 51.4017 20.888 50.1431 20.888C48.6711 20.888 47.3377 21.2613 46.1431 22.008C44.9484 22.7547 43.9991 23.8213 43.2951 25.208ZM54.4951 26.84C55.2631 27.6293 55.6471 28.7067 55.6471 30.072C55.6471 31.4373 55.2631 32.5147 54.4951 33.304C53.7484 34.0933 52.8311 34.488 51.7431 34.488C50.6551 34.488 49.7271 34.0933 48.9591 33.304C48.2124 32.4933 47.8391 31.4053 47.8391 30.04C47.8391 28.6747 48.2124 27.608 48.9591 26.84C49.7271 26.0507 50.6551 25.656 51.7431 25.656C52.8311 25.656 53.7484 26.0507 54.4951 26.84ZM72.9498 21.816C71.9898 22.3707 71.1898 23.1387 70.5498 24.12V21.144H65.0778V39H70.5498V30.712C70.5498 29.24 70.8911 28.216 71.5738 27.64C72.2565 27.0427 73.2805 26.744 74.6458 26.744H76.1498V20.952C74.9765 20.952 73.9098 21.24 72.9498 21.816ZM84.2373 39V15.32H78.7653V39H84.2373ZM104.939 31.384C105.003 30.8293 105.035 30.296 105.035 29.784C105.035 27.992 104.651 26.424 103.883 25.08C103.136 23.736 102.091 22.7013 100.747 21.976C99.4028 21.2507 97.8668 20.888 96.1388 20.888C94.3681 20.888 92.8001 21.2613 91.4348 22.008C90.0695 22.7547 89.0028 23.8213 88.2348 25.208C87.4881 26.5947 87.1148 28.216 87.1148 30.072C87.1148 31.928 87.4988 33.5493 88.2668 34.936C89.0348 36.3227 90.1015 37.3893 91.4668 38.136C92.8321 38.8827 94.3895 39.256 96.1388 39.256C97.5895 39.256 98.9015 38.9893 100.075 38.456C101.248 37.9227 102.219 37.1867 102.987 36.248C103.776 35.3093 104.32 34.2533 104.619 33.08H98.7948C98.2615 34.232 97.3121 34.808 95.9468 34.808C95.0295 34.808 94.2508 34.52 93.6108 33.944C92.9921 33.3467 92.6401 32.4933 92.5548 31.384H104.939ZM98.4748 26.104C99.1148 26.6587 99.4348 27.4053 99.4348 28.344H92.5868C92.7361 27.3627 93.1201 26.6053 93.7388 26.072C94.3788 25.5387 95.1575 25.272 96.0748 25.272C97.0348 25.272 97.8348 25.5493 98.4748 26.104ZM114.962 47.48L126.162 21.144H120.242L116.146 32.312L112.018 21.144H105.906L113.17 38.392L109.074 47.48H114.962Z" fill="white"/>
</svg>
